<mxfile host="app.diagrams.net" agent="Mozilla/5.0 (Windows NT 10.0; Win64; x64; rv:138.0) Gecko/20100101 Firefox/138.0" version="27.0.6">
  <diagram name="Register Vehicle Type - Use Case" id="0">
    <mxGraphModel dx="1042" dy="563" grid="1" gridSize="10" guides="1" tooltips="1" connect="1" arrows="1" fold="1" page="1" pageScale="1" pageWidth="827" pageHeight="1169" math="0" shadow="0">
      <root>
        <mxCell id="EbrLa86BUiFH61Qa8W7s-0" />
        <mxCell id="EbrLa86BUiFH61Qa8W7s-1" parent="EbrLa86BUiFH61Qa8W7s-0" />
        <mxCell id="dUDcNplxaqIMCbnSYa40-3" value="User" style="shape=umlActor;verticalLabelPosition=bottom;verticalAlign=top;html=1;outlineConnect=0;aspect=fixed;" vertex="1" parent="EbrLa86BUiFH61Qa8W7s-1">
          <mxGeometry x="130" y="210" width="55" height="110" as="geometry" />
        </mxCell>
        <mxCell id="dUDcNplxaqIMCbnSYa40-4" value="Register type of Vehicle" style="swimlane;whiteSpace=wrap;html=1;" vertex="1" parent="EbrLa86BUiFH61Qa8W7s-1">
          <mxGeometry x="320" y="80" width="400" height="400" as="geometry" />
        </mxCell>
        <mxCell id="dUDcNplxaqIMCbnSYa40-5" value="Select vehicle type" style="ellipse;whiteSpace=wrap;html=1;" vertex="1" parent="dUDcNplxaqIMCbnSYa40-4">
          <mxGeometry x="90" y="40" width="220" height="70" as="geometry" />
        </mxCell>
        <mxCell id="dUDcNplxaqIMCbnSYa40-6" value="Input vehicle attributes" style="ellipse;whiteSpace=wrap;html=1;" vertex="1" parent="dUDcNplxaqIMCbnSYa40-4">
          <mxGeometry x="90" y="130" width="220" height="70" as="geometry" />
        </mxCell>
        <mxCell id="dUDcNplxaqIMCbnSYa40-7" value="Set as default vehicle" style="ellipse;whiteSpace=wrap;html=1;" vertex="1" parent="dUDcNplxaqIMCbnSYa40-4">
          <mxGeometry x="90" y="220" width="220" height="70" as="geometry" />
        </mxCell>
        <mxCell id="dUDcNplxaqIMCbnSYa40-8" value="Save vehicle data" style="ellipse;whiteSpace=wrap;html=1;" vertex="1" parent="dUDcNplxaqIMCbnSYa40-4">
          <mxGeometry x="90" y="310" width="220" height="70" as="geometry" />
        </mxCell>
        <mxCell id="dUDcNplxaqIMCbnSYa40-12" value="" style="endArrow=none;html=1;rounded=0;entryX=0;entryY=0.5;entryDx=0;entryDy=0;" edge="1" parent="EbrLa86BUiFH61Qa8W7s-1" target="dUDcNplxaqIMCbnSYa40-6">
          <mxGeometry width="50" height="50" relative="1" as="geometry">
            <mxPoint x="190" y="270" as="sourcePoint" />
            <mxPoint x="440" y="300" as="targetPoint" />
          </mxGeometry>
        </mxCell>
        <mxCell id="dUDcNplxaqIMCbnSYa40-13" value="" style="endArrow=none;html=1;rounded=0;entryX=0;entryY=0.5;entryDx=0;entryDy=0;" edge="1" parent="EbrLa86BUiFH61Qa8W7s-1" target="dUDcNplxaqIMCbnSYa40-5">
          <mxGeometry width="50" height="50" relative="1" as="geometry">
            <mxPoint x="190" y="270" as="sourcePoint" />
            <mxPoint x="440" y="300" as="targetPoint" />
          </mxGeometry>
        </mxCell>
        <mxCell id="dUDcNplxaqIMCbnSYa40-14" value="" style="endArrow=none;html=1;rounded=0;entryX=0;entryY=0.5;entryDx=0;entryDy=0;" edge="1" parent="EbrLa86BUiFH61Qa8W7s-1" target="dUDcNplxaqIMCbnSYa40-7">
          <mxGeometry width="50" height="50" relative="1" as="geometry">
            <mxPoint x="190" y="270" as="sourcePoint" />
            <mxPoint x="420" y="350" as="targetPoint" />
          </mxGeometry>
        </mxCell>
        <mxCell id="dUDcNplxaqIMCbnSYa40-15" value="" style="endArrow=none;html=1;rounded=0;entryX=0;entryY=0.5;entryDx=0;entryDy=0;" edge="1" parent="EbrLa86BUiFH61Qa8W7s-1" target="dUDcNplxaqIMCbnSYa40-8">
          <mxGeometry width="50" height="50" relative="1" as="geometry">
            <mxPoint x="190" y="270" as="sourcePoint" />
            <mxPoint x="460" y="405" as="targetPoint" />
          </mxGeometry>
        </mxCell>
      </root>
    </mxGraphModel>
  </diagram>
</mxfile>
